Coordinates
version=1
nRows=14
nColumns=24
inDegrees=yes

Units are S.I. units (second, meters, Newtons, ...)
Angles are in degrees.

endheader
time	pelvis_tilt	pelvis_list	pelvis_rotation	pelvis_tx	pelvis_ty	pelvis_tz	hip_flexion_r	hip_adduction_r	hip_rotation_r	knee_angle_r	ankle_angle_r	subtalar_angle_r	mtp_angle_r	hip_flexion_l	hip_adduction_l	hip_rotation_l	knee_angle_l	ankle_angle_l	subtalar_angle_l	mtp_angle_l	lumbar_extension	lumbar_bending	lumbar_rotation
      1.42483333	      2.75789538	     10.33867424	     -4.63913955	      0.30640519	      1.00902561	      0.31334795	     15.59854687	    -13.31199704	      1.34198100	    -74.91621560	     -9.04396386	    -10.40498671	      6.05494631	      4.91784375	     15.87203950	      3.72263857	    -10.38352057	      1.51476434	    -19.00292486	     -2.99076118	    -15.06898090	     -6.22128853	     -2.55785220
      1.42900000	      2.77038022	     10.13043062	     -4.55897334	      0.31122820	      1.00997727	      0.31294791	     16.12570260	    -13.02291255	      1.23865003	    -74.65873911	     -8.48121508	    -10.64321660	      5.97679202	      4.30892300	     15.69209048	      3.95921703	     -9.88998782	      1.52187385	    -18.99390833	     -2.99062995	    -15.10604450	     -5.91934068	     -2.79171042
      1.43316667	      2.78261470	      9.93428778	     -4.47418735	      0.31605945	      1.01086770	      0.31253500	     16.63979240	    -12.75248449	      1.12412397	    -74.34960165	     -7.89191446	    -10.86816547	      5.88416745	      3.70140016	     15.52268796	      4.18783728	     -9.39522147	      1.52226544	    -18.98508976	     -2.99164692	    -15.13694195	     -5.62105841	     -3.03114339
      1.43733333	      2.79388230	      9.72764096	     -4.38123112	      0.32089499	      1.01174615	      0.31212709	     17.12944002	    -12.46763315	      0.99901714	    -73.96930629	     -7.29552061	    -11.08845774	      5.78765132	      3.09588759	     15.33666738	      4.40312718	     -8.90504005	      1.53105646	    -18.95047641	     -2.99304390	    -15.16372786	     -5.31653905	     -3.24790852
      1.44150000	      2.77594222	      9.53995794	     -4.28558199	      0.32572867	      1.01251852	      0.31173730	     17.64304369	    -12.20025759	      0.87397081	    -73.54623129	     -6.65310691	    -11.31378753	      5.75203557	      2.54355889	     15.16037014	      4.54907249	     -8.45082837	      1.54855497	    -18.84526378	     -2.99279157	    -15.14888832	     -5.06507730	     -3.34344416
      1.44566667	      2.79729178	      9.31787585	     -4.17980218	      0.33055714	      1.01333611	      0.31131410	     18.07900900	    -11.90099173	      0.72939282	    -73.04268848	     -6.03103672	    -11.49526748	      5.68855263	      1.93497552	     14.95312861	      4.75891380	     -7.97893281	      1.57326185	    -18.77729457	     -2.99327856	    -15.21777971	     -4.71341015	     -3.55993040
      1.44983333	      2.84289646	      9.12136052	     -4.08647639	      0.33541182	      1.01411727	      0.31090680	     18.48222305	    -11.63966252	      0.58356855	    -72.48881656	     -5.43672696	    -11.64518934	      5.56459248	      1.28399746	     14.77154849	      4.98722285	     -7.46592266	      1.59754277	    -18.75056100	     -2.99510659	    -15.26593379	     -4.41279918	     -3.87962843
      1.45400000	      2.84877348	      8.94423628	     -3.97706108	      0.34024642	      1.01478696	      0.31050551	     18.91680843	    -11.39283600	      0.43861408	    -71.89483811	     -4.77766593	    -11.81414532	      5.35249884	      0.69775158	     14.60262252	      5.18779775	     -6.98991372	      1.57401435	    -18.71052379	     -3.00140624	    -15.28653378	     -4.14491377	     -4.13611089
      1.45816667	      2.82012570	      8.74250829	     -3.87584974	      0.34508688	      1.01538498	      0.31012481	     19.36954632	    -11.10818874	      0.30394037	    -71.23555943	     -4.12657433	    -11.96244193	      5.30081033	      0.17273506	     14.39904827	      5.31229830	     -6.56411206	      1.61957436	    -18.58218908	     -3.00113235	    -15.26894110	     -3.85818093	     -4.18801925
      1.46233333	      2.81325509	      8.54563173	     -3.76923264	      0.34993010	      1.01594821	      0.30974684	     19.78030018	    -10.83410384	      0.16228489	    -70.52373931	     -3.48185387	    -12.08181341	      5.24069491	     -0.38037004	     14.19948383	      5.45137207	     -6.12630881	      1.67411518	    -18.45421482	     -3.00038850	    -15.27956803	     -3.57129190	     -4.32137537
      1.46650000	      2.87971548	      8.36533832	     -3.67777003	      0.35479028	      1.01655454	      0.30938585	     20.09643523	    -10.59011324	      0.02156430	    -69.75390917	     -2.85683073	    -12.13467793	      5.11074208	     -1.02680310	     14.02024991	      5.62145516	     -5.65577171	      1.73910504	    -18.34881297	     -3.00098365	    -15.35182920	     -3.30767593	     -4.59662781
      1.47066667	      2.86636701	      8.18437081	     -3.57125923	      0.35963427	      1.01701098	      0.30903735	     20.48436990	    -10.33198548	     -0.11414609	    -68.93804192	     -2.20510182	    -12.23182416	      5.02349042	     -1.55613631	     13.83046071	      5.74423553	     -5.24380621	      1.77481831	    -18.22989262	     -3.00114181	    -15.34542662	     -3.05814815	     -4.72116633
      1.47483333	      2.85633518	      8.01175573	     -3.47225211	      0.36448694	      1.01740409	      0.30868901	     20.85777938	    -10.08535041	     -0.24292451	    -68.07755822	     -1.56680302	    -12.29844343	      4.94271976	     -2.08710799	     13.64897612	      5.86644872	     -4.83061583	      1.82574086	    -18.10727767	     -3.00034246	    -15.34751299	     -2.80155314	     -4.85572895
      1.47900000	      2.89713653	      7.86026154	     -3.38768293	      0.36934327	      1.01778867	      0.30835565	     21.16917664	     -9.87028568	     -0.36278083	    -67.17654253	     -0.95623450	    -12.30831664	      4.79588004	     -2.68600697	     13.49105050	      6.01528698	     -4.38247227	      1.89821350	    -17.98970924	     -2.99905340	    -15.39919640	     -2.55376509	     -5.07993692
